# Blender v3.0.0 OBJ File: ''
# www.blender.org
mtllib Tree_001_001.mtl
o tree_001_Tree_001.002
v 0.300030 0.700100 0.300030
v 0.300030 0.700100 -0.300030
v -0.100010 2.300100 0.100010
v 0.100010 2.300100 0.100010
v -0.100010 2.300100 -0.100010
v 0.100010 2.300100 -0.100010
v -0.300030 -0.000100 0.300030
v 0.300030 -0.000100 0.300030
v -0.300030 -0.000100 -0.300030
v 0.300030 -0.000100 -0.300030
v -0.500050 0.299900 0.500050
v 0.500050 0.299900 0.500050
v -0.300030 0.299900 0.300030
v 0.300030 0.299900 0.300030
v -0.300030 0.299900 -0.300030
v 0.300030 0.299900 -0.300030
v -0.500050 0.299900 -0.500050
v 0.500050 0.299900 -0.500050
v -0.400040 1.099900 0.400040
v 0.400040 1.099900 0.400040
v -0.200020 1.099900 0.200020
v 0.200020 1.099900 0.200020
v -0.200020 1.099900 -0.200020
v 0.200020 1.099900 -0.200020
v -0.400040 1.099900 -0.400040
v 0.400040 1.099900 -0.400040
v -0.300030 1.899900 0.300030
v 0.300030 1.899900 0.300030
v -0.100010 1.899900 0.100010
v 0.100010 1.899900 0.100010
v -0.100010 1.899900 -0.100010
v 0.100010 1.899900 -0.100010
v -0.300030 1.899900 -0.300030
v 0.300030 1.899900 -0.300030
v -0.500050 0.500100 0.500050
v -0.400040 0.500100 0.400040
v 0.500050 0.500100 0.500050
v 0.400040 0.500100 0.400040
v -0.400040 0.500100 -0.400040
v 0.400040 0.500100 -0.400040
v -0.500050 0.500100 -0.500050
v 0.500050 0.500100 -0.500050
v -0.400040 0.700100 0.400040
v -0.300030 0.700100 0.300030
v 0.400040 0.700100 0.400040
v -0.300030 0.700100 -0.300030
v -0.400040 0.700100 -0.400040
v 0.400040 0.700100 -0.400040
v -0.300030 0.900100 0.300030
v -0.200020 0.900100 0.200020
v 0.300030 0.900100 0.300030
v 0.200020 0.900100 0.200020
v -0.200020 0.900100 -0.200020
v 0.200020 0.900100 -0.200020
v -0.300030 0.900100 -0.300030
v 0.300030 0.900100 -0.300030
v -0.400040 1.300100 0.400040
v -0.300030 1.300100 0.300030
v 0.400040 1.300100 0.400040
v 0.300030 1.300100 0.300030
v -0.300030 1.300100 -0.300030
v 0.300030 1.300100 -0.300030
v -0.400040 1.300100 -0.400040
v 0.400040 1.300100 -0.400040
v -0.300030 1.500100 0.300030
v -0.200020 1.500100 0.200020
v 0.300030 1.500100 0.300030
v 0.200020 1.500100 0.200020
v -0.200020 1.500100 -0.200020
v 0.200020 1.500100 -0.200020
v -0.300030 1.500100 -0.300030
v 0.300030 1.500100 -0.300030
v -0.200020 1.700100 0.200020
v -0.100010 1.700100 0.100010
v 0.200020 1.700100 0.200020
v 0.100010 1.700100 0.100010
v -0.100010 1.700100 -0.100010
v 0.100010 1.700100 -0.100010
v -0.200020 1.700100 -0.200020
v 0.200020 1.700100 -0.200020
v -0.300030 2.100100 0.300030
v -0.200020 2.100100 0.200020
v 0.300030 2.100100 0.300030
v 0.200020 2.100100 0.200020
v -0.200020 2.100100 -0.200020
v 0.200020 2.100100 -0.200020
v -0.300030 2.100100 -0.300030
v 0.300030 2.100100 -0.300030
v -0.200020 2.300100 0.200020
v 0.200020 2.300100 0.200020
v -0.200020 2.300100 -0.200020
v 0.200020 2.300100 -0.200020
v -0.100010 2.500100 0.100010
v 0.100010 2.500100 0.100010
v -0.100010 2.500100 -0.100010
v 0.100010 2.500100 -0.100010
vt 0.578470 0.644393
vt 0.534041 0.644393
vt 0.534041 0.599964
vt 0.578470 0.599964
vt 0.355968 0.644393
vt 0.311539 0.644393
vt 0.311539 0.599964
vt 0.355967 0.599964
vt 0.311539 0.910964
vt 0.311539 0.866535
vt 0.355968 0.866535
vt 0.355968 0.910963
vt 0.800972 0.822106
vt 0.800972 0.866535
vt 0.756544 0.866535
vt 0.756544 0.822106
vt 0.355968 0.822106
vt 0.311539 0.822107
vt 0.578470 0.822106
vt 0.578470 0.866535
vt 0.534041 0.866535
vt 0.534041 0.822106
vt 0.089036 0.044608
vt 0.089036 0.000180
vt 0.133465 0.000180
vt 0.133465 0.044608
vt 0.378182 0.799892
vt 0.289325 0.799892
vt 0.600684 0.799892
vt 0.511827 0.799892
vt 0.066822 0.066823
vt 0.155679 0.066822
vt 0.734329 0.799892
vt 0.823186 0.799892
vt 0.734329 0.755464
vt 0.823186 0.755464
vt 0.712115 0.733250
vt 0.845401 0.733250
vt 0.289325 0.755464
vt 0.378182 0.755464
vt 0.267111 0.733250
vt 0.400396 0.733250
vt 0.511827 0.755464
vt 0.600684 0.755464
vt 0.489613 0.733250
vt 0.622898 0.733250
vt 0.155679 0.111251
vt 0.066822 0.111251
vt 0.177893 0.133465
vt 0.044608 0.133465
vt 0.089037 0.222322
vt 0.044608 0.177894
vt 0.177893 0.177893
vt 0.133465 0.222322
vt 0.489613 0.688821
vt 0.622898 0.688821
vt 0.845400 0.688821
vt 0.712115 0.688821
vt 0.756544 0.644393
vt 0.800972 0.644393
vt 0.267111 0.688821
vt 0.400396 0.688821
vt 0.756543 0.599964
vt 0.800972 0.599964
vt 0.133465 0.266750
vt 0.089037 0.266750
vt 0.289325 0.577750
vt 0.378182 0.577750
vt 0.823186 0.577750
vt 0.734329 0.577750
vt 0.155679 0.288964
vt 0.066823 0.288965
vt 0.600684 0.577750
vt 0.511827 0.577750
vt 0.044608 0.866535
vt 0.177894 0.866535
vt 0.177894 0.999820
vt 0.044608 0.999820
vt 0.267110 0.000180
vt 0.400396 0.000180
vt 0.400396 0.066823
vt 0.267110 0.066823
vt 0.489613 0.066823
vt 0.489613 0.000180
vt 0.622898 0.000180
vt 0.622898 0.066823
vt 0.177894 0.799892
vt 0.044608 0.799892
vt 0.712115 0.066823
vt 0.712115 0.000180
vt 0.845400 0.000180
vt 0.845400 0.066823
vt 0.889829 0.111251
vt 0.667686 0.111251
vt 0.667686 0.155680
vt 0.889829 0.155680
vt 0.689901 0.177894
vt 0.867614 0.177894
vt 0.222682 0.111251
vt 0.444824 0.111251
vt 0.444824 0.155680
vt 0.222682 0.155680
vt 0.244896 0.177894
vt 0.422610 0.177894
vt 0.445184 0.111251
vt 0.667327 0.111251
vt 0.667327 0.155680
vt 0.445184 0.155680
vt 0.645112 0.177894
vt 0.467398 0.177894
vt 0.222322 0.755463
vt 0.000180 0.755463
vt 0.222322 0.711035
vt 0.000180 0.711035
vt 0.200108 0.688821
vt 0.022394 0.688821
vt 0.467398 0.222322
vt 0.645112 0.222322
vt 0.489613 0.244537
vt 0.622898 0.244537
vt 0.244896 0.222322
vt 0.422610 0.222322
vt 0.267110 0.244537
vt 0.400396 0.244537
vt 0.689901 0.222322
vt 0.867614 0.222322
vt 0.712115 0.244537
vt 0.845400 0.244537
vt 0.200108 0.644392
vt 0.022394 0.644392
vt 0.177894 0.622178
vt 0.044608 0.622178
vt 0.267110 0.288965
vt 0.400396 0.288965
vt 0.289325 0.311179
vt 0.378182 0.311179
vt 0.712115 0.288965
vt 0.845400 0.288965
vt 0.734329 0.311179
vt 0.823186 0.311179
vt 0.177894 0.577749
vt 0.044608 0.577750
vt 0.155680 0.555535
vt 0.066823 0.555535
vt 0.489613 0.288965
vt 0.622898 0.288965
vt 0.511827 0.311179
vt 0.600684 0.311179
vt 0.823186 0.355608
vt 0.734329 0.355608
vt 0.066823 0.511107
vt 0.155680 0.511107
vt 0.289325 0.355608
vt 0.378182 0.355608
vt 0.511827 0.355608
vt 0.600684 0.355608
vt 0.244896 0.400036
vt 0.422610 0.400036
vt 0.244896 0.444465
vt 0.422610 0.444465
vt 0.267111 0.466679
vt 0.400396 0.466679
vt 0.267111 0.511107
vt 0.400396 0.511107
vt 0.289325 0.533322
vt 0.378182 0.533322
vt 0.467398 0.400036
vt 0.645112 0.400036
vt 0.467398 0.444465
vt 0.645112 0.444465
vt 0.489613 0.466679
vt 0.622898 0.466679
vt 0.489613 0.511107
vt 0.622898 0.511107
vt 0.511827 0.533322
vt 0.600684 0.533322
vt 0.200108 0.466678
vt 0.022394 0.466678
vt 0.200108 0.422250
vt 0.022394 0.422250
vt 0.177894 0.400036
vt 0.044608 0.400036
vt 0.177894 0.355607
vt 0.044608 0.355607
vt 0.155679 0.333393
vt 0.066823 0.333393
vt 0.689901 0.400036
vt 0.867614 0.400036
vt 0.689901 0.444465
vt 0.867614 0.444465
vt 0.712115 0.466679
vt 0.845400 0.466679
vt 0.712115 0.511107
vt 0.845400 0.511107
vt 0.734329 0.533322
vt 0.823186 0.533322
vn -1.0000 0.0000 0.0000
vn 0.0000 0.0000 -1.0000
vn 0.0000 1.0000 0.0000
vn 1.0000 0.0000 0.0000
vn 0.0000 -0.0000 1.0000
vn 0.0000 -1.0000 0.0000
usemtl palette
s off
f 29/1/1 31/2/1 77/3/1 74/4/1
f 31/5/2 32/6/2 78/7/2 77/8/2
f 94/9/3 96/10/3 95/11/3 93/12/3
f 6/13/4 96/14/4 94/15/4 4/16/4
f 5/17/2 95/11/2 96/10/2 6/18/2
f 3/19/1 93/20/1 95/21/1 5/22/1
f 4/23/5 94/24/5 93/25/5 3/26/5
f 91/27/3 5/17/3 6/18/3 92/28/3
f 89/29/3 3/19/3 5/22/3 91/30/3
f 90/31/3 4/23/3 3/26/3 89/32/3
f 90/33/3 92/34/3 6/13/3 4/16/3
f 84/35/4 86/36/4 92/34/4 90/33/4
f 83/37/3 88/38/3 86/36/3 84/35/3
f 86/39/2 85/40/2 91/27/2 92/28/2
f 88/41/3 87/42/3 85/40/3 86/39/3
f 85/43/1 82/44/1 89/29/1 91/30/1
f 87/45/3 81/46/3 82/44/3 85/43/3
f 82/47/5 84/48/5 90/31/5 89/32/5
f 81/49/3 83/50/3 84/48/3 82/47/3
f 30/51/6 28/52/6 27/53/6 29/54/6
f 33/55/6 31/2/6 29/1/6 27/56/6
f 34/57/6 28/58/6 30/59/6 32/60/6
f 34/61/6 32/6/6 31/5/6 33/62/6
f 88/41/2 34/61/2 33/62/2 87/42/2
f 27/56/1 81/46/1 87/45/1 33/55/1
f 28/52/5 83/50/5 81/49/5 27/53/5
f 34/57/4 88/38/4 83/37/4 28/58/4
f 32/60/4 30/59/4 76/63/4 78/64/4
f 30/51/5 29/54/5 74/65/5 76/66/5
f 77/8/3 78/7/3 80/67/3 79/68/3
f 80/69/3 78/64/3 76/63/3 75/70/3
f 74/65/3 73/71/3 75/72/3 76/66/3
f 73/73/3 74/4/3 77/3/3 79/74/3
f 8/75/6 7/76/6 9/77/6 10/78/6
f 10/79/2 9/80/2 15/81/2 16/82/2
f 15/83/1 9/84/1 7/85/1 13/86/1
f 13/87/5 7/76/5 8/75/5 14/88/5
f 14/89/4 8/90/4 10/91/4 16/92/4
f 14/89/6 16/92/6 18/93/6 12/94/6
f 37/95/4 12/94/4 18/93/4 42/96/4
f 38/97/3 37/95/3 42/96/3 40/98/3
f 18/99/6 16/82/6 15/81/6 17/100/6
f 18/99/2 17/100/2 41/101/2 42/102/2
f 40/103/3 42/102/3 41/101/3 39/104/3
f 17/105/6 15/83/6 13/86/6 11/106/6
f 11/106/1 35/107/1 41/108/1 17/105/1
f 35/107/3 36/109/3 39/110/3 41/108/3
f 11/111/6 13/87/6 14/88/6 12/112/6
f 35/113/5 11/111/5 12/112/5 37/114/5
f 36/115/3 35/113/3 37/114/3 38/116/3
f 47/117/1 39/110/1 36/109/1 43/118/1
f 46/119/3 47/117/3 43/118/3 44/120/3
f 48/121/2 40/103/2 39/104/2 47/122/2
f 2/123/3 48/121/3 47/122/3 46/124/3
f 45/125/4 38/97/4 40/98/4 48/126/4
f 1/127/3 45/125/3 48/126/3 2/128/3
f 43/129/5 36/115/5 38/116/5 45/130/5
f 44/131/3 43/129/3 45/130/3 1/132/3
f 56/133/2 2/123/2 46/124/2 55/134/2
f 54/135/3 56/133/3 55/134/3 53/136/3
f 51/137/4 1/127/4 2/128/4 56/138/4
f 52/139/3 51/137/3 56/138/3 54/140/3
f 49/141/5 44/131/5 1/132/5 51/142/5
f 50/143/3 49/141/3 51/142/3 52/144/3
f 55/145/1 46/119/1 44/120/1 49/146/1
f 53/147/3 55/145/3 49/146/3 50/148/3
f 54/140/4 24/149/4 22/150/4 52/139/4
f 52/144/5 22/151/5 21/152/5 50/143/5
f 24/153/2 54/135/2 53/136/2 23/154/2
f 23/155/1 53/147/1 50/148/1 21/156/1
f 26/157/6 24/153/6 23/154/6 25/158/6
f 64/159/2 26/157/2 25/158/2 63/160/2
f 62/161/3 64/159/3 63/160/3 61/162/3
f 72/163/2 62/161/2 61/162/2 71/164/2
f 70/165/3 72/163/3 71/164/3 69/166/3
f 80/67/2 70/165/2 69/166/2 79/68/2
f 25/167/6 23/155/6 21/156/6 19/168/6
f 63/169/1 25/167/1 19/168/1 57/170/1
f 61/171/3 63/169/3 57/170/3 58/172/3
f 71/173/1 61/171/1 58/172/1 65/174/1
f 69/175/3 71/173/3 65/174/3 66/176/3
f 79/74/1 69/175/1 66/176/1 73/73/1
f 19/177/6 21/152/6 22/151/6 20/178/6
f 57/179/5 19/177/5 20/178/5 59/180/5
f 58/181/3 57/179/3 59/180/3 60/182/3
f 65/183/5 58/181/5 60/182/5 67/184/5
f 66/185/3 65/183/3 67/184/3 68/186/3
f 73/71/5 66/185/5 68/186/5 75/72/5
f 20/187/6 22/150/6 24/149/6 26/188/6
f 59/189/4 20/187/4 26/188/4 64/190/4
f 60/191/3 59/189/3 64/190/3 62/192/3
f 67/193/4 60/191/4 62/192/4 72/194/4
f 68/195/3 67/193/3 72/194/3 70/196/3
f 75/70/4 68/195/4 70/196/4 80/69/4
